<svg width="20" height="21" viewBox="0 0 20 21" fill="none" xmlns="http://www.w3.org/2000/svg">
<path d="M9.10254 1.54102C9.56271 1.05808 10.3139 1.02594 10.8125 1.44629L10.9082 1.53711L18.8086 9.74414C19.0915 10.038 19.25 10.43 19.25 10.8379V10.8887C19.2498 11.6788 18.6494 12.329 17.8799 12.4072L17.7236 12.415C17.278 12.415 16.917 12.776 16.917 13.2217V18.5117C16.917 19.202 16.3572 19.7615 15.667 19.7617H12.417V15.6133C12.4167 14.6471 11.6332 13.8635 10.667 13.8633H9.33301C8.36682 13.8635 7.58327 14.6471 7.58301 15.6133V19.7617H4.33301C3.6428 19.7615 3.08301 19.202 3.08301 18.5117V13.2217C3.083 12.776 2.722 12.415 2.27637 12.415H2.25195C1.42243 12.4149 0.75 11.7417 0.75 10.9121C0.750109 10.5747 0.863733 10.2486 1.07031 9.98535L1.16406 9.87695L9.10254 1.54102Z" stroke="currentColor" stroke-width="1.5"/>
</svg>
